<svg width="38" height="38" viewBox="0 0 38 38" fill="none" xmlns="http://www.w3.org/2000/svg">
<circle cx="19" cy="19" r="19" fill="#3858D6"/>
<g clip-path="url(#clip0_18_117)">
<path d="M15.25 29.1667C15.7563 29.1667 16.1667 28.7563 16.1667 28.25C16.1667 27.7438 15.7563 27.3334 15.25 27.3334C14.7437 27.3334 14.3333 27.7438 14.3333 28.25C14.3333 28.7563 14.7437 29.1667 15.25 29.1667Z" stroke="white" stroke-width="2" stroke-linecap="round" stroke-linejoin="round"/>
<path d="M25.3333 29.1667C25.8396 29.1667 26.25 28.7563 26.25 28.25C26.25 27.7438 25.8396 27.3334 25.3333 27.3334C24.8271 27.3334 24.4167 27.7438 24.4167 28.25C24.4167 28.7563 24.8271 29.1667 25.3333 29.1667Z" stroke="white" stroke-width="2" stroke-linecap="round" stroke-linejoin="round"/>
<path d="M7.91666 9.91663H11.5833L14.04 22.1908C14.1238 22.6128 14.3534 22.9919 14.6886 23.2617C15.0237 23.5315 15.4431 23.6749 15.8733 23.6666H24.7833C25.2135 23.6749 25.6329 23.5315 25.9681 23.2617C26.3032 22.9919 26.5328 22.6128 26.6167 22.1908L28.0833 14.5H12.5" fill="white"/>
<path d="M7.91666 9.91663H11.5833L14.04 22.1908C14.1238 22.6128 14.3534 22.9919 14.6886 23.2617C15.0237 23.5315 15.4431 23.6749 15.8733 23.6666H24.7833C25.2135 23.6749 25.6329 23.5315 25.9681 23.2617C26.3033 22.9919 26.5328 22.6128 26.6167 22.1908L28.0833 14.5H12.5" stroke="white" stroke-width="2" stroke-linecap="round" stroke-linejoin="round"/>
</g>
<defs>
<clipPath id="clip0_18_117">
<rect width="22" height="22" fill="white" transform="translate(7 9)"/>
</clipPath>
</defs>
</svg>
