<svg width="38" height="38" viewBox="0 0 38 38" fill="none" xmlns="http://www.w3.org/2000/svg">
<circle cx="19" cy="19" r="19" fill="#FF6B6B"/>
<path d="M26.5349 14.3454C26.0707 13.8683 25.5194 13.4897 24.9128 13.2315C24.3061 12.9733 23.6558 12.8403 22.9991 12.8403C22.3424 12.8403 21.6921 12.9733 21.0854 13.2315C20.4787 13.4897 19.9275 13.8683 19.4633 14.3454L18.4998 15.3352L17.5363 14.3454C16.5985 13.382 15.3266 12.8408 14.0004 12.8408C12.6742 12.8408 11.4024 13.382 10.4646 14.3454C9.52683 15.3088 9 16.6154 9 17.9778C9 19.3402 9.52683 20.6468 10.4646 21.6102L11.4281 22.6L18.4998 29.8648L25.5714 22.6L26.5349 21.6102C26.9994 21.1333 27.3678 20.567 27.6192 19.9437C27.8706 19.3205 28 18.6525 28 17.9778C28 17.3032 27.8706 16.6351 27.6192 16.0119C27.3678 15.3886 26.9994 14.8224 26.5349 14.3454Z" fill="white" stroke="white" stroke-width="2" stroke-linecap="round" stroke-linejoin="round"/>
</svg>
